<?xml version="1.0" encoding="UTF-8" standalone="no"?>
<!DOCTYPE svg PUBLIC "-//W3C//DTD SVG 1.1//EN" "http://www.w3.org/Graphics/SVG/1.1/DTD/svg11.dtd">
<svg version="1.1" xmlns="http://www.w3.org/2000/svg" xmlns:xlink="http://www.w3.org/1999/xlink" preserveAspectRatio="xMidYMid meet" viewBox="0 0 150 100" width="150" height="100"><defs><path d="M167.6 -6.97L167.6 107.64L-7.78 107.64L-7.78 -6.97L167.6 -6.97Z" id="aqiCiN3dn"></path><path d="M75 23.09C29.89 23.09 -6.73 8.8 -6.73 -8.8C-6.73 -26.41 29.89 -40.7 75 -40.7C120.11 -40.7 156.73 -26.41 156.73 -8.8C156.73 8.8 120.11 23.09 75 23.09Z" id="a2GIMrcxFl"></path><path d="M22.32 11.97L34.83 14.48L45.35 15.2L56.54 19.86L68.71 16.28L95.36 19.15L109.84 18.43L134.18 9.82L149.58 2.28L145.37 13.05L146.68 22.25L127.93 19.86L117.07 25.97L107.54 33.5L94.05 27.4L76.6 28.12L67.72 33.5L52.59 24.17L46.33 24.17L36.8 30.99L20.35 23.45L14.75 11.97L3.89 16.99L1 3L9.82 5.87L22.32 11.97Z" id="e11gOaZH7P"></path><path d="M22.74 11.97L35.25 14.48L45.78 15.2L56.96 19.86L69.13 16.28L95.78 19.15L110.26 18.43L134.61 9.82L150 2.28L145.79 13.05L147.11 22.25L128.35 19.86L117.5 25.97L107.96 33.5L94.47 27.4L77.03 28.12L68.14 33.5L53.01 24.17L46.76 24.17L37.22 30.99L20.77 23.45L15.18 11.97L4.32 16.99L1.42 3L10.24 5.87L22.74 11.97Z" id="e1aFZbDksO"></path></defs><g><g><g><use xlink:href="#aqiCiN3dn" opacity="1" fill="#5e8c31" fill-opacity="1"></use><g><use xlink:href="#aqiCiN3dn" opacity="1" fill-opacity="0" stroke="#000000" stroke-width="1" stroke-opacity="0"></use></g></g><g><use xlink:href="#a2GIMrcxFl" opacity="1" fill="#000000" fill-opacity="1"></use><g><use xlink:href="#a2GIMrcxFl" opacity="1" fill-opacity="0" stroke="#000000" stroke-width="1" stroke-opacity="0"></use></g></g><g><use xlink:href="#e11gOaZH7P" opacity="1" fill="#504940" fill-opacity="1"></use><g><use xlink:href="#e11gOaZH7P" opacity="1" fill-opacity="0" stroke="#000000" stroke-width="1" stroke-opacity="0"></use></g></g><g><use xlink:href="#e1aFZbDksO" opacity="1" fill="#000000" fill-opacity="0"></use><g><use xlink:href="#e1aFZbDksO" opacity="1" fill-opacity="0" stroke="#000000" stroke-width="1" stroke-opacity="1"></use></g></g></g></g></svg>