<?xml version="1.0" encoding="UTF-8" standalone="no"?>
<!DOCTYPE svg PUBLIC "-//W3C//DTD SVG 1.1//EN" "http://www.w3.org/Graphics/SVG/1.1/DTD/svg11.dtd">
<svg version="1.1" xmlns="http://www.w3.org/2000/svg" xmlns:xlink="http://www.w3.org/1999/xlink" preserveAspectRatio="xMidYMid meet" viewBox="0 0 150 100" width="150" height="100"><defs><path d="M-7.78 -6.97L167.6 -6.97L167.6 107.64L-7.78 107.64L-7.78 -6.97Z" id="e4rV4dtGTc"></path><path d="M156.73 -8.8C156.73 8.8 120.11 23.09 75 23.09C29.89 23.09 -6.73 8.8 -6.73 -8.8C-6.73 -26.41 29.89 -40.7 75 -40.7C120.11 -40.7 156.73 -26.41 156.73 -8.8Z" id="a65FoIrJTs"></path><path d="M7.75 5.87L20.62 11.97L33.5 14.48L44.34 15.2L55.86 19.86L68.39 16.28L95.83 19.15L110.74 18.43L135.81 9.82L151.66 2.28L147.33 13.05L148.68 22.25L129.37 19.86L118.19 25.97L108.37 33.5L94.48 27.4L76.52 28.12L67.37 33.5L51.79 24.17L45.35 24.17L35.53 30.99L18.59 23.45L12.83 11.97L1.65 16.99L-1.33 3L7.75 5.87Z" id="c19xqJeUJG"></path></defs><g><g><g><use xlink:href="#e4rV4dtGTc" opacity="1" fill="#3b563f" fill-opacity="1"></use><g><use xlink:href="#e4rV4dtGTc" opacity="1" fill-opacity="0" stroke="#000000" stroke-width="1" stroke-opacity="1"></use></g></g><g><use xlink:href="#a65FoIrJTs" opacity="1" fill="#000000" fill-opacity="1"></use></g><g><use xlink:href="#c19xqJeUJG" opacity="1" fill="#504940" fill-opacity="1"></use><g><use xlink:href="#c19xqJeUJG" opacity="1" fill-opacity="0" stroke="#000000" stroke-width="1" stroke-opacity="1"></use></g></g></g></g></svg>