<?xml version="1.0" encoding="UTF-8" standalone="no"?>
<!DOCTYPE svg PUBLIC "-//W3C//DTD SVG 1.1//EN" "http://www.w3.org/Graphics/SVG/1.1/DTD/svg11.dtd">
<svg version="1.1" xmlns="http://www.w3.org/2000/svg" xmlns:xlink="http://www.w3.org/1999/xlink" preserveAspectRatio="xMidYMid meet" viewBox="0 0 150 100" width="150" height="100"><defs><path d="M151.12 128.55C151.12 193.5 117.01 246.23 75 246.23C32.99 246.23 -1.12 193.5 -1.12 128.55C-1.12 63.59 32.99 10.86 75 10.86C117.01 10.86 151.12 63.59 151.12 128.55Z" id="a2li6LJjn"></path><path d="M65.78 58.6C65.78 64.76 62.01 69.77 57.36 69.77C52.71 69.77 48.94 64.76 48.94 58.6C48.94 52.43 52.71 47.43 57.36 47.43C62.01 47.43 65.78 52.43 65.78 58.6Z" id="a60ws3aleS"></path><path d="M99.33 58.6C99.33 64.76 95.56 69.77 90.91 69.77C86.26 69.77 82.49 64.76 82.49 58.6C82.49 52.43 86.26 47.43 90.91 47.43C95.56 47.43 99.33 52.43 99.33 58.6Z" id="a8fBpibAY"></path><path d="M62.32 64.45C62.32 66.41 60.73 68 58.78 68C56.82 68 55.23 66.41 55.23 64.45C55.23 62.49 56.82 60.9 58.78 60.9C60.73 60.9 62.32 62.49 62.32 64.45Z" id="f9gwgmlgy"></path><path d="M96.4 64.45C96.4 66.41 94.82 68 92.86 68C90.9 68 89.31 66.41 89.31 64.45C89.31 62.49 90.9 60.9 92.86 60.9C94.82 60.9 96.4 62.49 96.4 64.45Z" id="b1QB6eGd0R"></path></defs><g><g><g><use xlink:href="#a2li6LJjn" opacity="1" fill="#564234" fill-opacity="1"></use><g><use xlink:href="#a2li6LJjn" opacity="1" fill-opacity="0" stroke="#000000" stroke-width="1" stroke-opacity="1"></use></g></g><g><use xlink:href="#a60ws3aleS" opacity="1" fill="#ffffff" fill-opacity="1"></use></g><g><use xlink:href="#a8fBpibAY" opacity="1" fill="#ffffff" fill-opacity="1"></use></g><g><use xlink:href="#f9gwgmlgy" opacity="1" fill="#000000" fill-opacity="1"></use></g><g><use xlink:href="#b1QB6eGd0R" opacity="1" fill="#000000" fill-opacity="1"></use></g></g></g></svg>