<?xml version="1.0" encoding="UTF-8" standalone="no"?>
<!DOCTYPE svg PUBLIC "-//W3C//DTD SVG 1.1//EN" "http://www.w3.org/Graphics/SVG/1.1/DTD/svg11.dtd">
<svg version="1.1" xmlns="http://www.w3.org/2000/svg" xmlns:xlink="http://www.w3.org/1999/xlink" preserveAspectRatio="xMidYMid meet" viewBox="0 0 150 100" width="150" height="100"><defs><path d="M144.3 112.5C144.3 165.8 112.91 209.08 74.25 209.08C35.59 209.08 4.2 165.8 4.2 112.5C4.2 59.19 35.59 15.91 74.25 15.91C112.91 15.91 144.3 59.19 144.3 112.5Z" id="aYLtrfB6Q"></path><path d="M61.24 55.84C61.24 62.28 57.75 67.51 53.46 67.51C49.16 67.51 45.67 62.28 45.67 55.84C45.67 49.39 49.16 44.16 53.46 44.16C57.75 44.16 61.24 49.39 61.24 55.84Z" id="b7oSjDKGE"></path><path d="M103.82 55.84C103.82 62.28 100.33 67.51 96.03 67.51C91.74 67.51 88.25 62.28 88.25 55.84C88.25 49.39 91.74 44.16 96.03 44.16C100.33 44.16 103.82 49.39 103.82 55.84Z" id="e5qOXOSM"></path><path d="M100.52 61.87C100.52 64.08 99.12 65.87 97.39 65.87C95.67 65.87 94.27 64.08 94.27 61.87C94.27 59.67 95.67 57.87 97.39 57.87C99.12 57.87 100.52 59.67 100.52 61.87Z" id="b9ANzZ9hE"></path><path d="M58.75 61.87C58.75 64.08 57.35 65.87 55.63 65.87C53.9 65.87 52.5 64.08 52.5 61.87C52.5 59.67 53.9 57.87 55.63 57.87C57.35 57.87 58.75 59.67 58.75 61.87Z" id="b1RRx3LDd9"></path></defs><g><g><g><use xlink:href="#aYLtrfB6Q" opacity="1" fill="#564234" fill-opacity="1"></use></g><g><use xlink:href="#b7oSjDKGE" opacity="1" fill="#ffffff" fill-opacity="1"></use></g><g><use xlink:href="#e5qOXOSM" opacity="1" fill="#ffffff" fill-opacity="1"></use></g><g><use xlink:href="#b9ANzZ9hE" opacity="1" fill="#000000" fill-opacity="1"></use></g><g><use xlink:href="#b1RRx3LDd9" opacity="1" fill="#000000" fill-opacity="1"></use></g></g></g></svg>