<?xml version="1.0" encoding="UTF-8" standalone="no"?>
<!DOCTYPE svg PUBLIC "-//W3C//DTD SVG 1.1//EN" "http://www.w3.org/Graphics/SVG/1.1/DTD/svg11.dtd">
<svg version="1.1" xmlns="http://www.w3.org/2000/svg" xmlns:xlink="http://www.w3.org/1999/xlink" preserveAspectRatio="xMidYMid meet" viewBox="0 0 150 100" width="150" height="100"><defs><path d="M151.12 128.55C151.12 193.5 117.01 246.23 75 246.23C32.99 246.23 -1.12 193.5 -1.12 128.55C-1.12 63.59 32.99 10.86 75 10.86C117.01 10.86 151.12 63.59 151.12 128.55Z" id="bgGr9CdLe"></path><path d="M65.78 58.6C65.78 64.76 62.01 69.77 57.36 69.77C52.71 69.77 48.94 64.76 48.94 58.6C48.94 52.43 52.71 47.43 57.36 47.43C62.01 47.43 65.78 52.43 65.78 58.6Z" id="a60ws3aleS"></path><path d="M99.33 58.6C99.33 64.76 95.56 69.77 90.91 69.77C86.26 69.77 82.49 64.76 82.49 58.6C82.49 52.43 86.26 47.43 90.91 47.43C95.56 47.43 99.33 52.43 99.33 58.6Z" id="a8fBpibAY"></path><path d="M60.9 61.64C60.9 63.6 59.32 65.19 57.36 65.19C55.4 65.19 53.81 63.6 53.81 61.64C53.81 59.68 55.4 58.1 57.36 58.1C59.32 58.1 60.9 59.68 60.9 61.64Z" id="eMnNb7jtI"></path><path d="M95.04 62.15C95.04 64.1 93.46 65.69 91.5 65.69C89.54 65.69 87.95 64.1 87.95 62.15C87.95 60.19 89.54 58.6 91.5 58.6C93.46 58.6 95.04 60.19 95.04 62.15Z" id="b7mTKSd0V"></path><path d="M57.75 84.13L62.04 88.12L73.13 89.45L78.74 85.02L92.05 88.12L95.45 84.13L90.57 78.51L82.14 82.21L73.13 77.03L64.7 81.62L55.83 79.4L57.75 84.13Z" id="a4r9DXPKWX"></path></defs><g><g><g><use xlink:href="#bgGr9CdLe" opacity="1" fill="#af2b2b" fill-opacity="1"></use><g><use xlink:href="#bgGr9CdLe" opacity="1" fill-opacity="0" stroke="#000000" stroke-width="1" stroke-opacity="1"></use></g></g><g><use xlink:href="#a60ws3aleS" opacity="1" fill="#ffffff" fill-opacity="1"></use></g><g><use xlink:href="#a8fBpibAY" opacity="1" fill="#ffffff" fill-opacity="1"></use></g><g><use xlink:href="#eMnNb7jtI" opacity="1" fill="#000000" fill-opacity="1"></use></g><g><use xlink:href="#b7mTKSd0V" opacity="1" fill="#000000" fill-opacity="1"></use></g><g><use xlink:href="#a4r9DXPKWX" opacity="1" fill="#cab4b4" fill-opacity="1"></use><g><use xlink:href="#a4r9DXPKWX" opacity="1" fill-opacity="0" stroke="#000000" stroke-width="1" stroke-opacity="1"></use></g></g></g></g></svg>