<?xml version="1.0" encoding="UTF-8" standalone="no"?>
<!DOCTYPE svg PUBLIC "-//W3C//DTD SVG 1.1//EN" "http://www.w3.org/Graphics/SVG/1.1/DTD/svg11.dtd">
<svg version="1.1" xmlns="http://www.w3.org/2000/svg" xmlns:xlink="http://www.w3.org/1999/xlink" preserveAspectRatio="xMidYMid meet" viewBox="0 0 150 100" width="150" height="100"><defs><path d="M151.12 128.55C151.12 193.5 117.01 246.23 75 246.23C32.99 246.23 -1.12 193.5 -1.12 128.55C-1.12 63.59 32.99 10.86 75 10.86C117.01 10.86 151.12 63.59 151.12 128.55Z" id="fH2AXScI"></path><path d="M65.78 58.6C65.78 64.76 62.01 69.77 57.36 69.77C52.71 69.77 48.94 64.76 48.94 58.6C48.94 52.43 52.71 47.43 57.36 47.43C62.01 47.43 65.78 52.43 65.78 58.6Z" id="a60ws3aleS"></path><path d="M99.33 58.6C99.33 64.76 95.56 69.77 90.91 69.77C86.26 69.77 82.49 64.76 82.49 58.6C82.49 52.43 86.26 47.43 90.91 47.43C95.56 47.43 99.33 52.43 99.33 58.6Z" id="a8fBpibAY"></path><path d="M58.83 56.62C58.83 58.57 57.25 60.16 55.29 60.16C53.33 60.16 51.74 58.57 51.74 56.62C51.74 54.66 53.33 53.07 55.29 53.07C57.25 53.07 58.83 54.66 58.83 56.62Z" id="b2FNOGZt1A"></path><path d="M96.82 56.38C96.82 58.34 95.23 59.93 93.27 59.93C91.32 59.93 89.73 58.34 89.73 56.38C89.73 54.42 91.32 52.83 93.27 52.83C95.23 52.83 96.82 54.42 96.82 56.38Z" id="aKdrlwaFE"></path><path d="M70.07 24.85C70.07 27.95 67.55 30.47 64.45 30.47C61.35 30.47 58.83 27.95 58.83 24.85C58.83 21.75 61.35 19.24 64.45 19.24C67.55 19.24 70.07 21.75 70.07 24.85Z" id="c1DInwEj5"></path><path d="M43.98 42.38C43.98 45.48 41.47 48 38.37 48C35.27 48 32.75 45.48 32.75 42.38C32.75 39.28 35.27 36.76 38.37 36.76C41.47 36.76 43.98 39.28 43.98 42.38Z" id="elHiUlgrD"></path><path d="M109.89 37.73C109.89 40.83 107.37 43.35 104.27 43.35C101.17 43.35 98.66 40.83 98.66 37.73C98.66 34.63 101.17 32.12 104.27 32.12C107.37 32.12 109.89 34.63 109.89 37.73Z" id="a4BzPgKAzF"></path><path d="M81.19 44.38C81.19 47.48 78.68 50 75.58 50C72.48 50 69.96 47.48 69.96 44.38C69.96 41.28 72.48 38.77 75.58 38.77C78.68 38.77 81.19 41.28 81.19 44.38Z" id="d94lBO43l"></path><path d="M119.9 63.48C119.9 66.58 117.38 69.09 114.28 69.09C111.18 69.09 108.67 66.58 108.67 63.48C108.67 60.38 111.18 57.86 114.28 57.86C117.38 57.86 119.9 60.38 119.9 63.48Z" id="a24P3795Km"></path><path d="M97.41 80.12C97.41 83.22 94.89 85.73 91.79 85.73C88.69 85.73 86.18 83.22 86.18 80.12C86.18 77.02 88.69 74.5 91.79 74.5C94.89 74.5 97.41 77.02 97.41 80.12Z" id="a1HdM7evHN"></path><path d="M35.16 67.26C35.16 70.36 32.64 72.88 29.54 72.88C26.44 72.88 23.92 70.36 23.92 67.26C23.92 64.16 26.44 61.64 29.54 61.64C32.64 61.64 35.16 64.16 35.16 67.26Z" id="b1mzNKhqNO"></path><path d="M54.06 84.42C54.06 87.52 51.54 90.04 48.44 90.04C45.34 90.04 42.82 87.52 42.82 84.42C42.82 81.32 45.34 78.81 48.44 78.81C51.54 78.81 54.06 81.32 54.06 84.42Z" id="a2pHXxsJM5"></path><path d="M128.39 85.39C128.39 88.49 125.87 91.01 122.77 91.01C119.67 91.01 117.15 88.49 117.15 85.39C117.15 82.29 119.67 79.78 122.77 79.78C125.87 79.78 128.39 82.29 128.39 85.39Z" id="a1sUi0q19t"></path><path d="M23.63 89.47C23.63 92.57 21.11 95.09 18.01 95.09C14.91 95.09 12.39 92.57 12.39 89.47C12.39 86.37 14.91 83.85 18.01 83.85C21.11 83.85 23.63 86.37 23.63 89.47Z" id="nJQu5t2Ud"></path><path d="M77.01 89.47C77.01 92.57 74.5 95.09 71.4 95.09C68.3 95.09 65.78 92.57 65.78 89.47C65.78 86.37 68.3 83.85 71.4 83.85C74.5 83.85 77.01 86.37 77.01 89.47Z" id="alalh0zNR"></path><path d="M113.99 99.39C113.99 102.49 111.47 105.01 108.37 105.01C105.27 105.01 102.75 102.49 102.75 99.39C102.75 96.29 105.27 93.78 108.37 93.78C111.47 93.78 113.99 96.29 113.99 99.39Z" id="b1dQOfxSxE"></path><path d="M40.05 100C40.05 103.1 37.54 105.62 34.44 105.62C31.34 105.62 28.82 103.1 28.82 100C28.82 96.9 31.34 94.38 34.44 94.38C37.54 94.38 40.05 96.9 40.05 100Z" id="a6EIJnVRMg"></path></defs><g><g><g><use xlink:href="#fH2AXScI" opacity="1" fill="#d1c76a" fill-opacity="1"></use><g><use xlink:href="#fH2AXScI" opacity="1" fill-opacity="0" stroke="#000000" stroke-width="1" stroke-opacity="1"></use></g></g><g><use xlink:href="#a60ws3aleS" opacity="1" fill="#ffffff" fill-opacity="1"></use></g><g><use xlink:href="#a8fBpibAY" opacity="1" fill="#ffffff" fill-opacity="1"></use></g><g><use xlink:href="#b2FNOGZt1A" opacity="1" fill="#000000" fill-opacity="1"></use></g><g><use xlink:href="#aKdrlwaFE" opacity="1" fill="#000000" fill-opacity="1"></use></g><g><use xlink:href="#c1DInwEj5" opacity="1" fill="#af9d2b" fill-opacity="1"></use></g><g><use xlink:href="#elHiUlgrD" opacity="1" fill="#af9d2b" fill-opacity="1"></use></g><g><use xlink:href="#a4BzPgKAzF" opacity="1" fill="#af9d2b" fill-opacity="1"></use></g><g><use xlink:href="#d94lBO43l" opacity="1" fill="#af9d2b" fill-opacity="1"></use></g><g><use xlink:href="#a24P3795Km" opacity="1" fill="#af9d2b" fill-opacity="1"></use></g><g><use xlink:href="#a1HdM7evHN" opacity="1" fill="#af9d2b" fill-opacity="1"></use></g><g><use xlink:href="#b1mzNKhqNO" opacity="1" fill="#af9d2b" fill-opacity="1"></use></g><g><use xlink:href="#a2pHXxsJM5" opacity="1" fill="#af9d2b" fill-opacity="1"></use></g><g><use xlink:href="#a1sUi0q19t" opacity="1" fill="#af9d2b" fill-opacity="1"></use></g><g><use xlink:href="#nJQu5t2Ud" opacity="1" fill="#af9d2b" fill-opacity="1"></use></g><g><use xlink:href="#alalh0zNR" opacity="1" fill="#af9d2b" fill-opacity="1"></use></g><g><use xlink:href="#b1dQOfxSxE" opacity="1" fill="#af9d2b" fill-opacity="1"></use></g><g><use xlink:href="#a6EIJnVRMg" opacity="1" fill="#af9d2b" fill-opacity="1"></use></g></g></g></svg>